<?xml version="1.0" standalone="no"?>
<!DOCTYPE svg PUBLIC "-//W3C//DTD SVG 20010904//EN"
 "http://www.w3.org/TR/2001/REC-SVG-20010904/DTD/svg10.dtd">
<svg version="1.0" xmlns="http://www.w3.org/2000/svg"
 width="200.000000pt" height="200.000000pt" viewBox="0 0 200.000000 200.000000"
 preserveAspectRatio="xMidYMid meet">
<metadata>
Created by potrace 1.14, written by Peter Selinger 2001-2017
</metadata>
<g transform="translate(0.000000,200.000000) scale(0.100000,-0.100000)"
fill="#000000" stroke="none">
<path d="M0 1435 l0 -565 48 0 c26 0 53 -5 60 -12 7 -7 12 -38 12 -69 0 -62
-16 -89 -51 -89 -14 0 -19 -7 -19 -30 0 -25 -4 -30 -25 -30 l-25 0 0 -320 0
-320 1000 0 1000 0 0 320 0 320 -25 0 c-23 0 -25 3 -26 53 0 28 -3 46 -6 40
-6 -17 -30 -17 -36 0 -3 6 -6 -12 -6 -40 -1 -50 -3 -53 -26 -53 l-25 0 0 115
c0 114 0 115 23 115 16 0 28 -10 39 -32 l16 -33 12 33 c9 24 18 32 36 32 l24
0 0 565 0 565 -1000 0 -1000 0 0 -565z m1059 177 c12 -39 11 -48 -4 -83 -22
-48 -8 -75 34 -63 25 7 43 9 119 12 26 2 32 6 32 25 -1 37 -24 59 -61 55 -26
-2 -34 1 -37 15 -5 25 16 47 45 47 27 0 158 -118 169 -152 12 -38 -69 -98
-133 -98 -25 0 -32 -9 -63 -73 -19 -39 -37 -87 -41 -104 l-6 -33 48 0 48 0 3
63 3 62 33 3 32 3 -2 -168 -3 -168 -30 0 -30 0 -3 73 -3 72 -209 0 -210 0 0
-62 c0 -74 -9 -91 -41 -86 l-24 3 -3 168 -2 168 32 -3 33 -3 3 -62 3 -63 51 0
c50 0 50 0 44 28 -4 15 -24 61 -44 103 -35 73 -39 77 -70 77 -33 0 -132 57
-132 75 0 40 133 177 172 177 34 0 50 -14 46 -41 -2 -20 -8 -24 -34 -21 -25 2
-37 -3 -53 -24 -30 -38 -27 -54 12 -56 17 -1 52 -2 77 -3 25 -1 54 -4 65 -6
18 -4 20 1 17 36 -10 134 0 158 61 153 40 -3 43 -5 56 -46z m-355 -358 c3 -9
6 -71 6 -139 0 -128 -9 -155 -45 -141 -12 4 -15 30 -15 151 l0 145 24 0 c13 0
27 -7 30 -16z m644 -132 c2 -121 0 -143 -13 -148 -8 -4 -22 -1 -30 6 -12 10
-15 40 -15 145 0 72 3 135 7 139 4 4 16 6 28 4 19 -3 20 -11 23 -146z m-719
104 c8 -9 11 -48 9 -112 -3 -94 -4 -99 -25 -102 -23 -3 -23 -2 -23 106 0 60 3
112 7 115 10 11 19 8 32 -7z m779 -104 l3 -112 -26 0 -25 0 0 109 c0 108 5
124 35 117 6 -2 11 -51 13 -114z m-828 -3 c0 -43 -3 -50 -17 -47 -14 2 -19 15
-21 51 -3 42 -1 47 17 47 18 0 21 -6 21 -51z m878 4 c-2 -36 -7 -49 -20 -51
-15 -3 -18 4 -18 47 0 45 3 51 21 51 18 0 20 -5 17 -47z m-1210 -259 c20 -14
22 -23 22 -109 0 -86 -2 -95 -22 -109 -31 -22 -64 -20 -88 4 -17 17 -20 33
-20 105 0 72 3 88 20 105 24 24 57 26 88 4z m783 -3 c22 -18 24 -27 24 -111 0
-79 -3 -94 -19 -106 -25 -18 -67 -18 -91 0 -21 15 -33 117 -21 181 10 53 64
71 107 36z m-683 -37 c3 -35 6 -41 22 -37 12 3 20 -1 23 -14 3 -10 5 8 6 40 1
55 2 57 27 57 l27 0 -5 -97 c-7 -116 -13 -135 -42 -131 -15 2 -22 11 -24 31
-4 33 -22 26 -22 -9 0 -19 -5 -24 -24 -24 -31 0 -36 20 -36 138 0 91 1 93 23
90 18 -2 23 -10 25 -44z m240 19 c-2 -23 -8 -29 -35 -31 -38 -4 -44 -19 -10
-24 16 -2 23 -11 25 -30 3 -24 0 -28 -22 -28 -39 0 -33 -28 7 -32 27 -2 33 -8
35 -30 3 -28 3 -28 -57 -28 l-61 0 0 115 0 115 61 0 c60 0 60 0 57 -27z m132
13 c6 -8 10 -33 9 -55 -2 -22 0 -43 4 -47 4 -4 7 -32 7 -61 0 -51 -2 -54 -22
-51 -18 2 -24 11 -26 36 -5 46 -32 43 -32 -3 0 -31 -3 -35 -25 -35 l-25 0 0
115 0 115 49 0 c30 0 53 -5 61 -14z m98 -28 c5 -54 32 -52 32 2 0 36 3 40 25
40 l25 0 0 -115 0 -115 -25 0 c-22 0 -25 4 -25 40 0 54 -27 56 -32 3 -2 -31
-7 -39 -25 -41 -23 -3 -23 -2 -23 113 0 115 0 116 23 113 18 -2 23 -10 25 -40z
m312 -43 c0 -69 3 -85 15 -85 12 0 15 16 15 85 0 84 0 85 25 85 l25 0 0 -104
c0 -97 -2 -106 -22 -120 -31 -22 -64 -20 -88 4 -17 17 -20 33 -20 120 l0 100
25 0 c25 0 25 -1 25 -85z m215 55 c0 -21 -5 -26 -32 -28 -18 -2 -33 -7 -33
-11 0 -5 15 -12 33 -17 30 -9 32 -12 35 -63 4 -68 -7 -81 -70 -81 -48 0 -49 1
-46 28 2 22 8 28 36 30 31 3 46 22 17 22 -43 0 -67 66 -45 125 9 24 14 26 57
23 44 -3 48 -5 48 -28z m145 0 c0 -28 -3 -30 -35 -30 -39 0 -48 -17 -12 -22
16 -2 23 -11 25 -30 3 -24 0 -28 -22 -28 -16 0 -26 -6 -26 -15 0 -10 11 -15
35 -15 32 0 35 -2 35 -30 l0 -30 -60 0 -60 0 0 108 c0 60 3 112 7 115 3 4 30
7 60 7 52 0 53 0 53 -30z m180 0 c0 -27 -3 -30 -30 -30 -30 0 -30 -1 -30 -55
0 -56 16 -77 22 -27 2 19 9 28 26 30 21 3 22 0 22 -57 l0 -61 -48 0 c-26 0
-53 5 -60 12 -8 8 -12 46 -12 103 0 57 4 95 12 103 7 7 31 12 55 12 41 0 43
-1 43 -30z m78 -22 c5 -73 32 -57 32 18 0 30 3 34 25 34 23 0 25 -4 25 -42 0
-24 -9 -63 -20 -87 -11 -24 -20 -56 -20 -72 0 -24 -4 -29 -25 -29 -19 0 -25 5
-25 23 0 12 -9 42 -20 66 -11 24 -20 65 -20 93 0 46 2 49 23 46 19 -3 22 -10
25 -50z m-1088 -278 c0 -29 -1 -30 -50 -30 -58 0 -68 -17 -12 -22 32 -3 37 -6
37 -28 0 -22 -5 -25 -37 -28 -25 -2 -38 -8 -38 -18 0 -10 13 -14 50 -14 49 0
50 -1 50 -30 l0 -30 -85 0 -85 0 0 115 0 115 85 0 85 0 0 -30z m118 -57 c3
-75 5 -83 22 -83 16 0 20 7 20 30 0 28 3 30 35 30 l35 0 0 -60 0 -60 -95 0
-95 0 0 116 0 115 38 -3 37 -3 3 -82z m307 57 c0 -18 -6 -26 -22 -28 -21 -3
-23 -9 -23 -57 0 -48 2 -54 23 -57 16 -2 23 -11 25 -30 l3 -28 -85 0 -86 0 0
30 c0 25 4 30 25 30 24 0 25 3 25 55 0 52 -1 55 -25 55 -21 0 -25 5 -25 30 l0
31 83 -3 c80 -3 82 -4 82 -28z m225 0 c0 -27 -3 -30 -30 -30 l-30 0 0 -85 0
-85 -40 0 -40 0 0 85 0 85 -30 0 c-27 0 -30 3 -30 30 l0 30 100 0 100 0 0 -30z
m208 3 c-3 -26 -7 -28 -50 -31 -55 -4 -64 -19 -15 -24 27 -2 33 -8 35 -30 3
-26 1 -28 -32 -28 -25 0 -36 -5 -36 -14 0 -11 14 -16 48 -18 43 -3 47 -5 50
-30 l3 -28 -90 0 -91 0 0 115 0 115 91 0 90 0 -3 -27z"/>
<path d="M190 755 c0 -42 3 -55 15 -55 12 0 15 13 15 55 0 42 -3 55 -15 55
-12 0 -15 -13 -15 -55z"/>
<path d="M970 755 c0 -48 2 -55 20 -55 18 0 20 7 20 55 0 48 -2 55 -20 55 -18
0 -20 -7 -20 -55z"/>
<path d="M660 790 c0 -11 5 -20 10 -20 6 0 10 9 10 20 0 11 -4 20 -10 20 -5 0
-10 -9 -10 -20z"/>
<path d="M50 785 c0 -14 5 -25 10 -25 6 0 10 11 10 25 0 14 -4 25 -10 25 -5 0
-10 -11 -10 -25z"/>
</g>
</svg>
